<svg xmlns="http://www.w3.org/2000/svg" viewBox="0 0 60 56" width="60" height="56" fill="none">
  <title>Le Chat icon without background</title>
  <g fill="#1F3B4C" shape-rendering="crispEdges">
    <rect x="56" y="0" width="1" height="1"/>
    <rect x="0" y="1" width="16" height="1"/>
    <rect x="45" y="1" width="15" height="1"/>
    <rect x="0" y="2" width="16" height="1"/>
    <rect x="43" y="2" width="17" height="1"/>
    <rect x="0" y="3" width="16" height="1"/>
    <rect x="43" y="3" width="17" height="1"/>
    <rect x="0" y="4" width="16" height="1"/>
    <rect x="43" y="4" width="17" height="1"/>
    <rect x="0" y="5" width="16" height="1"/>
    <rect x="43" y="5" width="17" height="1"/>
    <rect x="0" y="6" width="16" height="1"/>
    <rect x="43" y="6" width="17" height="1"/>
    <rect x="0" y="7" width="17" height="1"/>
    <rect x="43" y="7" width="17" height="1"/>
    <rect x="0" y="8" width="17" height="1"/>
    <rect x="43" y="8" width="17" height="1"/>
    <rect x="0" y="9" width="16" height="1"/>
    <rect x="43" y="9" width="17" height="1"/>
    <rect x="0" y="10" width="16" height="1"/>
    <rect x="43" y="10" width="17" height="1"/>
    <rect x="0" y="11" width="18" height="1"/>
    <rect x="39" y="11" width="1" height="1"/>
    <rect x="43" y="11" width="17" height="1"/>
    <rect x="0" y="12" width="27" height="1"/>
    <rect x="33" y="12" width="27" height="1"/>
    <rect x="0" y="13" width="28" height="1"/>
    <rect x="33" y="13" width="27" height="1"/>
    <rect x="0" y="14" width="28" height="1"/>
    <rect x="33" y="14" width="27" height="1"/>
    <rect x="0" y="15" width="28" height="1"/>
    <rect x="33" y="15" width="27" height="1"/>
    <rect x="0" y="16" width="28" height="1"/>
    <rect x="33" y="16" width="27" height="1"/>
    <rect x="0" y="17" width="28" height="1"/>
    <rect x="33" y="17" width="27" height="1"/>
    <rect x="0" y="18" width="28" height="1"/>
    <rect x="33" y="18" width="27" height="1"/>
    <rect x="0" y="19" width="28" height="1"/>
    <rect x="33" y="19" width="27" height="1"/>
    <rect x="0" y="20" width="28" height="1"/>
    <rect x="33" y="20" width="27" height="1"/>
    <rect x="0" y="21" width="28" height="1"/>
    <rect x="33" y="21" width="27" height="1"/>
    <rect x="0" y="22" width="28" height="1"/>
    <rect x="33" y="22" width="27" height="1"/>
    <rect x="0" y="23" width="60" height="1"/>
    <rect x="0" y="24" width="60" height="1"/>
    <rect x="0" y="25" width="60" height="1"/>
    <rect x="0" y="26" width="60" height="1"/>
    <rect x="0" y="27" width="60" height="1"/>
    <rect x="0" y="28" width="60" height="1"/>
    <rect x="0" y="29" width="60" height="1"/>
    <rect x="0" y="30" width="60" height="1"/>
    <rect x="0" y="31" width="60" height="1"/>
    <rect x="0" y="32" width="60" height="1"/>
    <rect x="0" y="33" width="60" height="1"/>
    <rect x="0" y="34" width="19" height="1"/>
    <rect x="20" y="34" width="20" height="1"/>
    <rect x="41" y="34" width="19" height="1"/>
    <rect x="0" y="35" width="17" height="1"/>
    <rect x="22" y="35" width="17" height="1"/>
    <rect x="43" y="35" width="17" height="1"/>
    <rect x="0" y="36" width="16" height="1"/>
    <rect x="22" y="36" width="17" height="1"/>
    <rect x="43" y="36" width="17" height="1"/>
    <rect x="0" y="37" width="16" height="1"/>
    <rect x="22" y="37" width="17" height="1"/>
    <rect x="43" y="37" width="17" height="1"/>
    <rect x="0" y="38" width="16" height="1"/>
    <rect x="22" y="38" width="17" height="1"/>
    <rect x="43" y="38" width="17" height="1"/>
    <rect x="0" y="39" width="16" height="1"/>
    <rect x="22" y="39" width="17" height="1"/>
    <rect x="43" y="39" width="17" height="1"/>
    <rect x="0" y="40" width="16" height="1"/>
    <rect x="22" y="40" width="17" height="1"/>
    <rect x="43" y="40" width="17" height="1"/>
    <rect x="0" y="41" width="16" height="1"/>
    <rect x="22" y="41" width="17" height="1"/>
    <rect x="43" y="41" width="17" height="1"/>
    <rect x="0" y="42" width="16" height="1"/>
    <rect x="22" y="42" width="17" height="1"/>
    <rect x="43" y="42" width="17" height="1"/>
    <rect x="0" y="43" width="16" height="1"/>
    <rect x="22" y="43" width="17" height="1"/>
    <rect x="43" y="43" width="17" height="1"/>
    <rect x="0" y="44" width="16" height="1"/>
    <rect x="21" y="44" width="18" height="1"/>
    <rect x="43" y="44" width="17" height="1"/>
    <rect x="0" y="45" width="16" height="1"/>
    <rect x="27" y="45" width="2" height="1"/>
    <rect x="31" y="45" width="4" height="1"/>
    <rect x="43" y="45" width="17" height="1"/>
    <rect x="0" y="46" width="16" height="1"/>
    <rect x="43" y="46" width="17" height="1"/>
    <rect x="0" y="47" width="16" height="1"/>
    <rect x="43" y="47" width="17" height="1"/>
    <rect x="0" y="48" width="16" height="1"/>
    <rect x="43" y="48" width="17" height="1"/>
    <rect x="0" y="49" width="16" height="1"/>
    <rect x="43" y="49" width="17" height="1"/>
    <rect x="0" y="50" width="16" height="1"/>
    <rect x="43" y="50" width="17" height="1"/>
    <rect x="0" y="51" width="16" height="1"/>
    <rect x="43" y="51" width="17" height="1"/>
    <rect x="0" y="52" width="16" height="1"/>
    <rect x="43" y="52" width="17" height="1"/>
    <rect x="0" y="53" width="16" height="1"/>
    <rect x="43" y="53" width="17" height="1"/>
    <rect x="0" y="54" width="16" height="1"/>
    <rect x="43" y="54" width="17" height="1"/>
    <rect x="0" y="55" width="16" height="1"/>
    <rect x="43" y="55" width="17" height="1"/>
  </g>
</svg>